# xmcd
#
# Track frame offsets:
#	150
#	14761
#	29632
#	41745
#	61047
#	76094
#	102552
#	119871
#	139023
#	162357
#	178218
#	191094
#
# Disc length: 2678 seconds
#
# Revision: 1
# Processed by: cddbd v1.5.2PL0 Copyright (c) Steve Scherf et al.
# Submitted via: audiograbber 1.83.01
#
DISCID=af0a740c
DTITLE=Martin Comeau - Eve Et Martin
DYEAR=1900
DGENRE=Country
TTITLE0=Le Chemin Vers Lui(Eve Jubinville_Martin Comeau-Martin Comeau)
TTITLE1=Souvent J'ai Crié(Eve Jubinville_Martin Comeau-Martin Comeau)
TTITLE2=Jésus Vient(Geneviève Jubinville-Martin Comeau)
TTITLE3=C'est Toi Ma Force(Eve Jubinville_Martin Comeau-Martin Comeau)
TTITLE4=Accroche-Toé Donc À La Vie(Eve Jubinville_Martin Comeau-Martin Comeau)
TTITLE5=Reviens Rebelle(Eve Jubinville_Martin Comeau-Martin Comeau)
TTITLE6=La Vie(Eve Jubinville_Martin Comeau-Martin Comeau)
TTITLE7=Jusqu'au Bout De L'amour(Martin Comeau-Martin Comeau)
TTITLE8=Esquisse D'amour(Eve Jubinville_Martin Comeau-Martin Comeau)
TTITLE9=Je Veux Te Servir(Eve Jubinville_Martin Comeau-Martin Comeau)
TTITLE10=Ce Que J'ai Reçu(Eve Jubinville_Martin Comeau-Martin Comeau)
TTITLE11=Vivant(Eve Jubinville_Martin Comeau-Martin Comeau)
EXTD=
EXTT0=
EXTT1=
EXTT2=
EXTT3=
EXTT4=
EXTT5=
EXTT6=
EXTT7=
EXTT8=
EXTT9=
EXTT10=
EXTT11=
PLAYORDER=
